<!-- filepath: /d:/myproject/vue3x/DevHelper/public/logo.svg -->
<svg
  version="1.1"
  id="Layer_1"
  xmlns="http://www.w3.org/2000/svg"
  xmlns:xlink="http://www.w3.org/1999/xlink"
  viewBox="0 0 64 64"
  xml:space="preserve"
  fill="#000000"
>
  <g id="SVGRepo_bgCarrier" stroke-width="0"></g>
  <g
    id="SVGRepo_tracerCarrier"
    stroke-linecap="round"
    stroke-linejoin="round"
  ></g>
  <g id="SVGRepo_iconCarrier">
    <g>
      <path
        d="M32,0C14.355,0,0,14.355,0,32s14.355,32,32,32s32-14.355,32-32S49.645,0,32,0z M32,60C15.458,60,4,48.542,4,32 S15.458,4,32,4s28,11.458,28,28S48.542,60,32,60z"
      ></path>
      <path
        d="M32,8c-0.553,0-1,0.447-1,1v14c0,0.553,0.447,1,1,1s1-0.447,1-1V9C33,8.447,32.553,8,32,8z"
      ></path>
      <path
        d="M32,40c-0.553,0-1,0.447-1,1v14c0,0.553,0.447,1,1,1s1-0.447,1-1V41C33,40.447,32.553,40,32,40z"
      ></path>
      <path
        d="M55,31H41c-0.553,0-1,0.447-1,1s0.447,1,1,1h14c0.553,0,1-0.447,1-1S55.553,31,55,31z"
      ></path>
      <path
        d="M23,32c0-0.553-0.447-1-1-1H8c-0.553,0-1,0.447-1,1s0.447,1,1,1h14C22.553,33,23,32.553,23,32z"
      ></path>
      <path
        d="M45.95,18.05c-0.391-0.391-1.023-0.391-1.414,0l-9.899,9.899c-0.391,0.391-0.391,1.023,0,1.414 c0.391,0.391,1.023,0.391,1.414,0l9.899-9.899C46.341,19.073,46.341,18.441,45.95,18.05z"
      ></path>
      <path
        d="M28.464,34.536c-0.391-0.391-1.023-0.391-1.414,0l-9.899,9.899c-0.391,0.391-0.391,1.023,0,1.414 c0.391,0.391,1.023,0.391,1.414,0l9.899-9.899C28.855,35.559,28.855,34.927,28.464,34.536z"
      ></path>
      <path
        d="M45.95,45.95c0.391-0.391,0.391-1.023,0-1.414l-9.899-9.899c-0.391-0.391-1.023-0.391-1.414,0 c-0.391,0.391-0.391,1.023,0,1.414l9.899,9.899C44.927,46.341,45.559,46.341,45.95,45.95z"
      ></path>
      <path
        d="M28.464,18.05c0.391-0.391,0.391-1.023,0-1.414l-9.899-9.899c-0.391-0.391-1.023-0.391-1.414,0 c-0.391,0.391-0.391,1.023,0,1.414l9.899,9.899C27.441,18.441,28.073,18.441,28.464,18.05z"
      ></path>
    </g>
  </g>
</svg>